<svg class="rich-terminal" viewBox="0 0 1482 782.0" xmlns="http://www.w3.org/2000/svg">
    <!-- Generated with Rich https://www.textualize.io -->
    <style>

    @font-face {
        font-family: "Fira Code";
        src: local("FiraCode-Regular"),
                url("https://cdnjs.cloudflare.com/ajax/libs/firacode/6.2.0/woff2/FiraCode-Regular.woff2") format("woff2"),
                url("https://cdnjs.cloudflare.com/ajax/libs/firacode/6.2.0/woff/FiraCode-Regular.woff") format("woff");
        font-style: normal;
        font-weight: 400;
    }
    @font-face {
        font-family: "Fira Code";
        src: local("FiraCode-Bold"),
                url("https://cdnjs.cloudflare.com/ajax/libs/firacode/6.2.0/woff2/FiraCode-Bold.woff2") format("woff2"),
                url("https://cdnjs.cloudflare.com/ajax/libs/firacode/6.2.0/woff/FiraCode-Bold.woff") format("woff");
        font-style: bold;
        font-weight: 700;
    }

    .terminal-matrix {
        font-family: Fira Code, monospace;
        font-size: 20px;
        line-height: 24.4px;
        font-variant-east-asian: full-width;
    }

    .terminal-title {
        font-size: 18px;
        font-weight: bold;
        font-family: arial;
    }

    .terminal-r1 { fill: #e3e3e4 }
.terminal-r2 { fill: #a3a4a7 }
.terminal-r3 { fill: #c5c8c6 }
.terminal-r4 { fill: #a9aaad }
.terminal-r5 { fill: #66b8c4;font-weight: bold }
.terminal-r6 { fill: #8a8c92 }
.terminal-r7 { fill: #3c3e45 }
.terminal-r8 { fill: #66b8c4 }
.terminal-r9 { fill: #eceef3;font-weight: bold }
.terminal-r10 { fill: #a5a6a8 }
.terminal-r11 { fill: #383b45 }
.terminal-r12 { fill: #eceef3 }
.terminal-r13 { fill: #9a9ca1 }
.terminal-r14 { fill: #86878c }
.terminal-r15 { fill: #9ea0a5 }
.terminal-r16 { fill: #747578 }
    </style>

    <defs>
    <clipPath id="terminal-clip-terminal">
      <rect x="0" y="0" width="1463.0" height="731.0" />
    </clipPath>
    <clipPath id="terminal-line-0">
    <rect x="0" y="1.5" width="1464" height="24.65"/>
            </clipPath>
<clipPath id="terminal-line-1">
    <rect x="0" y="25.9" width="1464" height="24.65"/>
            </clipPath>
<clipPath id="terminal-line-2">
    <rect x="0" y="50.3" width="1464" height="24.65"/>
            </clipPath>
<clipPath id="terminal-line-3">
    <rect x="0" y="74.7" width="1464" height="24.65"/>
            </clipPath>
<clipPath id="terminal-line-4">
    <rect x="0" y="99.1" width="1464" height="24.65"/>
            </clipPath>
<clipPath id="terminal-line-5">
    <rect x="0" y="123.5" width="1464" height="24.65"/>
            </clipPath>
<clipPath id="terminal-line-6">
    <rect x="0" y="147.9" width="1464" height="24.65"/>
            </clipPath>
<clipPath id="terminal-line-7">
    <rect x="0" y="172.3" width="1464" height="24.65"/>
            </clipPath>
<clipPath id="terminal-line-8">
    <rect x="0" y="196.7" width="1464" height="24.65"/>
            </clipPath>
<clipPath id="terminal-line-9">
    <rect x="0" y="221.1" width="1464" height="24.65"/>
            </clipPath>
<clipPath id="terminal-line-10">
    <rect x="0" y="245.5" width="1464" height="24.65"/>
            </clipPath>
<clipPath id="terminal-line-11">
    <rect x="0" y="269.9" width="1464" height="24.65"/>
            </clipPath>
<clipPath id="terminal-line-12">
    <rect x="0" y="294.3" width="1464" height="24.65"/>
            </clipPath>
<clipPath id="terminal-line-13">
    <rect x="0" y="318.7" width="1464" height="24.65"/>
            </clipPath>
<clipPath id="terminal-line-14">
    <rect x="0" y="343.1" width="1464" height="24.65"/>
            </clipPath>
<clipPath id="terminal-line-15">
    <rect x="0" y="367.5" width="1464" height="24.65"/>
            </clipPath>
<clipPath id="terminal-line-16">
    <rect x="0" y="391.9" width="1464" height="24.65"/>
            </clipPath>
<clipPath id="terminal-line-17">
    <rect x="0" y="416.3" width="1464" height="24.65"/>
            </clipPath>
<clipPath id="terminal-line-18">
    <rect x="0" y="440.7" width="1464" height="24.65"/>
            </clipPath>
<clipPath id="terminal-line-19">
    <rect x="0" y="465.1" width="1464" height="24.65"/>
            </clipPath>
<clipPath id="terminal-line-20">
    <rect x="0" y="489.5" width="1464" height="24.65"/>
            </clipPath>
<clipPath id="terminal-line-21">
    <rect x="0" y="513.9" width="1464" height="24.65"/>
            </clipPath>
<clipPath id="terminal-line-22">
    <rect x="0" y="538.3" width="1464" height="24.65"/>
            </clipPath>
<clipPath id="terminal-line-23">
    <rect x="0" y="562.7" width="1464" height="24.65"/>
            </clipPath>
<clipPath id="terminal-line-24">
    <rect x="0" y="587.1" width="1464" height="24.65"/>
            </clipPath>
<clipPath id="terminal-line-25">
    <rect x="0" y="611.5" width="1464" height="24.65"/>
            </clipPath>
<clipPath id="terminal-line-26">
    <rect x="0" y="635.9" width="1464" height="24.65"/>
            </clipPath>
<clipPath id="terminal-line-27">
    <rect x="0" y="660.3" width="1464" height="24.65"/>
            </clipPath>
<clipPath id="terminal-line-28">
    <rect x="0" y="684.7" width="1464" height="24.65"/>
            </clipPath>
    </defs>

    <rect fill="#292929" stroke="rgba(255,255,255,0.35)" stroke-width="1" x="1" y="1" width="1480" height="780" rx="8"/><text class="terminal-title" fill="#c5c8c6" text-anchor="middle" x="740" y="27">AC-Prof</text>
            <g transform="translate(26,22)">
            <circle cx="0" cy="0" r="7" fill="#ff5f57"/>
            <circle cx="22" cy="0" r="7" fill="#febc2e"/>
            <circle cx="44" cy="0" r="7" fill="#28c840"/>
            </g>

    <g transform="translate(9, 41)" clip-path="url(#terminal-clip-terminal)">
    <rect fill="#292b32" x="0" y="1.5" width="329.4" height="24.65" shape-rendering="crispEdges"/><rect fill="#292b32" x="329.4" y="1.5" width="85.4" height="24.65" shape-rendering="crispEdges"/><rect fill="#292b32" x="414.8" y="1.5" width="36.6" height="24.65" shape-rendering="crispEdges"/><rect fill="#292b32" x="451.4" y="1.5" width="610" height="24.65" shape-rendering="crispEdges"/><rect fill="#292b32" x="1061.4" y="1.5" width="341.6" height="24.65" shape-rendering="crispEdges"/><rect fill="#292b32" x="1403" y="1.5" width="12.2" height="24.65" shape-rendering="crispEdges"/><rect fill="#292b32" x="1415.2" y="1.5" width="36.6" height="24.65" shape-rendering="crispEdges"/><rect fill="#292b32" x="1451.8" y="1.5" width="12.2" height="24.65" shape-rendering="crispEdges"/><rect fill="#292b32" x="0" y="25.9" width="24.4" height="24.65" shape-rendering="crispEdges"/><rect fill="#292b32" x="24.4" y="25.9" width="122" height="24.65" shape-rendering="crispEdges"/><rect fill="#292b32" x="146.4" y="25.9" width="48.8" height="24.65" shape-rendering="crispEdges"/><rect fill="#292b32" x="195.2" y="25.9" width="85.4" height="24.65" shape-rendering="crispEdges"/><rect fill="#292b32" x="280.6" y="25.9" width="48.8" height="24.65" shape-rendering="crispEdges"/><rect fill="#292b32" x="329.4" y="25.9" width="97.6" height="24.65" shape-rendering="crispEdges"/><rect fill="#292b32" x="427" y="25.9" width="48.8" height="24.65" shape-rendering="crispEdges"/><rect fill="#292b32" x="475.8" y="25.9" width="85.4" height="24.65" shape-rendering="crispEdges"/><rect fill="#292b32" x="561.2" y="25.9" width="48.8" height="24.65" shape-rendering="crispEdges"/><rect fill="#292b32" x="610" y="25.9" width="170.8" height="24.65" shape-rendering="crispEdges"/><rect fill="#292b32" x="780.8" y="25.9" width="48.8" height="24.65" shape-rendering="crispEdges"/><rect fill="#292b32" x="829.6" y="25.9" width="73.2" height="24.65" shape-rendering="crispEdges"/><rect fill="#292b32" x="902.8" y="25.9" width="390.4" height="24.65" shape-rendering="crispEdges"/><rect fill="#292b32" x="1293.2" y="25.9" width="146.4" height="24.65" shape-rendering="crispEdges"/><rect fill="#292b32" x="1439.6" y="25.9" width="24.4" height="24.65" shape-rendering="crispEdges"/><rect fill="#292b32" x="0" y="50.3" width="24.4" height="24.65" shape-rendering="crispEdges"/><rect fill="#292b32" x="24.4" y="50.3" width="122" height="24.65" shape-rendering="crispEdges"/><rect fill="#292b32" x="146.4" y="50.3" width="1317.6" height="24.65" shape-rendering="crispEdges"/><rect fill="#202126" x="0" y="74.7" width="24.4" height="24.65" shape-rendering="crispEdges"/><rect fill="#202126" x="24.4" y="74.7" width="244" height="24.65" shape-rendering="crispEdges"/><rect fill="#202126" x="268.4" y="74.7" width="1195.6" height="24.65" shape-rendering="crispEdges"/><rect fill="#202126" x="0" y="99.1" width="24.4" height="24.65" shape-rendering="crispEdges"/><rect fill="#202126" x="24.4" y="99.1" width="1207.8" height="24.65" shape-rendering="crispEdges"/><rect fill="#202126" x="1232.2" y="99.1" width="231.8" height="24.65" shape-rendering="crispEdges"/><rect fill="#202126" x="0" y="123.5" width="24.4" height="24.65" shape-rendering="crispEdges"/><rect fill="#202126" x="24.4" y="123.5" width="97.6" height="24.65" shape-rendering="crispEdges"/><rect fill="#202126" x="122" y="123.5" width="109.8" height="24.65" shape-rendering="crispEdges"/><rect fill="#202126" x="231.8" y="123.5" width="475.8" height="24.65" shape-rendering="crispEdges"/><rect fill="#202126" x="707.6" y="123.5" width="12.2" height="24.65" shape-rendering="crispEdges"/><rect fill="#202126" x="719.8" y="123.5" width="195.2" height="24.65" shape-rendering="crispEdges"/><rect fill="#202126" x="915" y="123.5" width="36.6" height="24.65" shape-rendering="crispEdges"/><rect fill="#202126" x="951.6" y="123.5" width="488" height="24.65" shape-rendering="crispEdges"/><rect fill="#202126" x="1439.6" y="123.5" width="24.4" height="24.65" shape-rendering="crispEdges"/><rect fill="#202126" x="0" y="147.9" width="24.4" height="24.65" shape-rendering="crispEdges"/><rect fill="#202126" x="24.4" y="147.9" width="97.6" height="24.65" shape-rendering="crispEdges"/><rect fill="#202126" x="122" y="147.9" width="109.8" height="24.65" shape-rendering="crispEdges"/><rect fill="#202126" x="231.8" y="147.9" width="12.2" height="24.65" shape-rendering="crispEdges"/><rect fill="#202126" x="244" y="147.9" width="12.2" height="24.65" shape-rendering="crispEdges"/><rect fill="#202126" x="256.2" y="147.9" width="427" height="24.65" shape-rendering="crispEdges"/><rect fill="#202126" x="683.2" y="147.9" width="12.2" height="24.65" shape-rendering="crispEdges"/><rect fill="#202126" x="695.4" y="147.9" width="12.2" height="24.65" shape-rendering="crispEdges"/><rect fill="#202126" x="707.6" y="147.9" width="12.2" height="24.65" shape-rendering="crispEdges"/><rect fill="#202126" x="719.8" y="147.9" width="195.2" height="24.65" shape-rendering="crispEdges"/><rect fill="#202126" x="915" y="147.9" width="36.6" height="24.65" shape-rendering="crispEdges"/><rect fill="#202126" x="951.6" y="147.9" width="12.2" height="24.65" shape-rendering="crispEdges"/><rect fill="#202126" x="963.8" y="147.9" width="12.2" height="24.65" shape-rendering="crispEdges"/><rect fill="#202126" x="976" y="147.9" width="439.2" height="24.65" shape-rendering="crispEdges"/><rect fill="#202126" x="1415.2" y="147.9" width="12.2" height="24.65" shape-rendering="crispEdges"/><rect fill="#202126" x="1427.4" y="147.9" width="12.2" height="24.65" shape-rendering="crispEdges"/><rect fill="#202126" x="1439.6" y="147.9" width="24.4" height="24.65" shape-rendering="crispEdges"/><rect fill="#202126" x="0" y="172.3" width="24.4" height="24.65" shape-rendering="crispEdges"/><rect fill="#202126" x="24.4" y="172.3" width="97.6" height="24.65" shape-rendering="crispEdges"/><rect fill="#202126" x="122" y="172.3" width="109.8" height="24.65" shape-rendering="crispEdges"/><rect fill="#202126" x="231.8" y="172.3" width="475.8" height="24.65" shape-rendering="crispEdges"/><rect fill="#202126" x="707.6" y="172.3" width="12.2" height="24.65" shape-rendering="crispEdges"/><rect fill="#202126" x="719.8" y="172.3" width="195.2" height="24.65" shape-rendering="crispEdges"/><rect fill="#202126" x="915" y="172.3" width="36.6" height="24.65" shape-rendering="crispEdges"/><rect fill="#202126" x="951.6" y="172.3" width="488" height="24.65" shape-rendering="crispEdges"/><rect fill="#202126" x="1439.6" y="172.3" width="24.4" height="24.65" shape-rendering="crispEdges"/><rect fill="#202126" x="0" y="196.7" width="24.4" height="24.65" shape-rendering="crispEdges"/><rect fill="#202126" x="24.4" y="196.7" width="97.6" height="24.65" shape-rendering="crispEdges"/><rect fill="#202126" x="122" y="196.7" width="97.6" height="24.65" shape-rendering="crispEdges"/><rect fill="#202126" x="219.6" y="196.7" width="12.2" height="24.65" shape-rendering="crispEdges"/><rect fill="#202126" x="231.8" y="196.7" width="231.8" height="24.65" shape-rendering="crispEdges"/><rect fill="#202126" x="463.6" y="196.7" width="256.2" height="24.65" shape-rendering="crispEdges"/><rect fill="#202126" x="719.8" y="196.7" width="122" height="24.65" shape-rendering="crispEdges"/><rect fill="#202126" x="841.8" y="196.7" width="109.8" height="24.65" shape-rendering="crispEdges"/><rect fill="#202126" x="951.6" y="196.7" width="488" height="24.65" shape-rendering="crispEdges"/><rect fill="#202126" x="1439.6" y="196.7" width="24.4" height="24.65" shape-rendering="crispEdges"/><rect fill="#202126" x="0" y="221.1" width="24.4" height="24.65" shape-rendering="crispEdges"/><rect fill="#202126" x="24.4" y="221.1" width="134.2" height="24.65" shape-rendering="crispEdges"/><rect fill="#202126" x="158.6" y="221.1" width="61" height="24.65" shape-rendering="crispEdges"/><rect fill="#202126" x="219.6" y="221.1" width="12.2" height="24.65" shape-rendering="crispEdges"/><rect fill="#202126" x="231.8" y="221.1" width="12.2" height="24.65" shape-rendering="crispEdges"/><rect fill="#202126" x="244" y="221.1" width="12.2" height="24.65" shape-rendering="crispEdges"/><rect fill="#202126" x="256.2" y="221.1" width="183" height="24.65" shape-rendering="crispEdges"/><rect fill="#202126" x="439.2" y="221.1" width="12.2" height="24.65" shape-rendering="crispEdges"/><rect fill="#202126" x="451.4" y="221.1" width="12.2" height="24.65" shape-rendering="crispEdges"/><rect fill="#202126" x="463.6" y="221.1" width="256.2" height="24.65" shape-rendering="crispEdges"/><rect fill="#202126" x="719.8" y="221.1" width="122" height="24.65" shape-rendering="crispEdges"/><rect fill="#202126" x="841.8" y="221.1" width="109.8" height="24.65" shape-rendering="crispEdges"/><rect fill="#202126" x="951.6" y="221.1" width="12.2" height="24.65" shape-rendering="crispEdges"/><rect fill="#202126" x="963.8" y="221.1" width="24.4" height="24.65" shape-rendering="crispEdges"/><rect fill="#202126" x="988.2" y="221.1" width="183" height="24.65" shape-rendering="crispEdges"/><rect fill="#202126" x="1171.2" y="221.1" width="219.6" height="24.65" shape-rendering="crispEdges"/><rect fill="#202126" x="1390.8" y="221.1" width="12.2" height="24.65" shape-rendering="crispEdges"/><rect fill="#202126" x="1403" y="221.1" width="24.4" height="24.65" shape-rendering="crispEdges"/><rect fill="#202126" x="1427.4" y="221.1" width="12.2" height="24.65" shape-rendering="crispEdges"/><rect fill="#202126" x="1439.6" y="221.1" width="24.4" height="24.65" shape-rendering="crispEdges"/><rect fill="#202126" x="0" y="245.5" width="24.4" height="24.65" shape-rendering="crispEdges"/><rect fill="#202126" x="24.4" y="245.5" width="195.2" height="24.65" shape-rendering="crispEdges"/><rect fill="#202126" x="219.6" y="245.5" width="12.2" height="24.65" shape-rendering="crispEdges"/><rect fill="#202126" x="231.8" y="245.5" width="231.8" height="24.65" shape-rendering="crispEdges"/><rect fill="#202126" x="463.6" y="245.5" width="256.2" height="24.65" shape-rendering="crispEdges"/><rect fill="#202126" x="719.8" y="245.5" width="122" height="24.65" shape-rendering="crispEdges"/><rect fill="#202126" x="841.8" y="245.5" width="109.8" height="24.65" shape-rendering="crispEdges"/><rect fill="#202126" x="951.6" y="245.5" width="488" height="24.65" shape-rendering="crispEdges"/><rect fill="#202126" x="1439.6" y="245.5" width="24.4" height="24.65" shape-rendering="crispEdges"/><rect fill="#202126" x="0" y="269.9" width="24.4" height="24.65" shape-rendering="crispEdges"/><rect fill="#202126" x="24.4" y="269.9" width="97.6" height="24.65" shape-rendering="crispEdges"/><rect fill="#202126" x="122" y="269.9" width="109.8" height="24.65" shape-rendering="crispEdges"/><rect fill="#202126" x="231.8" y="269.9" width="475.8" height="24.65" shape-rendering="crispEdges"/><rect fill="#202126" x="707.6" y="269.9" width="12.2" height="24.65" shape-rendering="crispEdges"/><rect fill="#202126" x="719.8" y="269.9" width="134.2" height="24.65" shape-rendering="crispEdges"/><rect fill="#202126" x="854" y="269.9" width="97.6" height="24.65" shape-rendering="crispEdges"/><rect fill="#202126" x="951.6" y="269.9" width="488" height="24.65" shape-rendering="crispEdges"/><rect fill="#202126" x="1439.6" y="269.9" width="24.4" height="24.65" shape-rendering="crispEdges"/><rect fill="#202126" x="0" y="294.3" width="24.4" height="24.65" shape-rendering="crispEdges"/><rect fill="#202126" x="24.4" y="294.3" width="97.6" height="24.65" shape-rendering="crispEdges"/><rect fill="#202126" x="122" y="294.3" width="109.8" height="24.65" shape-rendering="crispEdges"/><rect fill="#202126" x="231.8" y="294.3" width="12.2" height="24.65" shape-rendering="crispEdges"/><rect fill="#202126" x="244" y="294.3" width="12.2" height="24.65" shape-rendering="crispEdges"/><rect fill="#202126" x="256.2" y="294.3" width="427" height="24.65" shape-rendering="crispEdges"/><rect fill="#202126" x="683.2" y="294.3" width="12.2" height="24.65" shape-rendering="crispEdges"/><rect fill="#202126" x="695.4" y="294.3" width="12.2" height="24.65" shape-rendering="crispEdges"/><rect fill="#202126" x="707.6" y="294.3" width="12.2" height="24.65" shape-rendering="crispEdges"/><rect fill="#202126" x="719.8" y="294.3" width="134.2" height="24.65" shape-rendering="crispEdges"/><rect fill="#202126" x="854" y="294.3" width="97.6" height="24.65" shape-rendering="crispEdges"/><rect fill="#202126" x="951.6" y="294.3" width="12.2" height="24.65" shape-rendering="crispEdges"/><rect fill="#202126" x="963.8" y="294.3" width="12.2" height="24.65" shape-rendering="crispEdges"/><rect fill="#202126" x="976" y="294.3" width="439.2" height="24.65" shape-rendering="crispEdges"/><rect fill="#202126" x="1415.2" y="294.3" width="12.2" height="24.65" shape-rendering="crispEdges"/><rect fill="#202126" x="1427.4" y="294.3" width="12.2" height="24.65" shape-rendering="crispEdges"/><rect fill="#202126" x="1439.6" y="294.3" width="24.4" height="24.65" shape-rendering="crispEdges"/><rect fill="#202126" x="0" y="318.7" width="24.4" height="24.65" shape-rendering="crispEdges"/><rect fill="#202126" x="24.4" y="318.7" width="97.6" height="24.65" shape-rendering="crispEdges"/><rect fill="#202126" x="122" y="318.7" width="109.8" height="24.65" shape-rendering="crispEdges"/><rect fill="#202126" x="231.8" y="318.7" width="475.8" height="24.65" shape-rendering="crispEdges"/><rect fill="#202126" x="707.6" y="318.7" width="12.2" height="24.65" shape-rendering="crispEdges"/><rect fill="#202126" x="719.8" y="318.7" width="134.2" height="24.65" shape-rendering="crispEdges"/><rect fill="#202126" x="854" y="318.7" width="97.6" height="24.65" shape-rendering="crispEdges"/><rect fill="#202126" x="951.6" y="318.7" width="488" height="24.65" shape-rendering="crispEdges"/><rect fill="#202126" x="1439.6" y="318.7" width="24.4" height="24.65" shape-rendering="crispEdges"/><rect fill="#202126" x="0" y="343.1" width="24.4" height="24.65" shape-rendering="crispEdges"/><rect fill="#202126" x="24.4" y="343.1" width="97.6" height="24.65" shape-rendering="crispEdges"/><rect fill="#202126" x="122" y="343.1" width="109.8" height="24.65" shape-rendering="crispEdges"/><rect fill="#202126" x="231.8" y="343.1" width="475.8" height="24.65" shape-rendering="crispEdges"/><rect fill="#202126" x="707.6" y="343.1" width="12.2" height="24.65" shape-rendering="crispEdges"/><rect fill="#202126" x="719.8" y="343.1" width="146.4" height="24.65" shape-rendering="crispEdges"/><rect fill="#202126" x="866.2" y="343.1" width="85.4" height="24.65" shape-rendering="crispEdges"/><rect fill="#202126" x="951.6" y="343.1" width="488" height="24.65" shape-rendering="crispEdges"/><rect fill="#202126" x="1439.6" y="343.1" width="24.4" height="24.65" shape-rendering="crispEdges"/><rect fill="#202126" x="0" y="367.5" width="24.4" height="24.65" shape-rendering="crispEdges"/><rect fill="#202126" x="24.4" y="367.5" width="97.6" height="24.65" shape-rendering="crispEdges"/><rect fill="#202126" x="122" y="367.5" width="109.8" height="24.65" shape-rendering="crispEdges"/><rect fill="#202126" x="231.8" y="367.5" width="12.2" height="24.65" shape-rendering="crispEdges"/><rect fill="#202126" x="244" y="367.5" width="24.4" height="24.65" shape-rendering="crispEdges"/><rect fill="#202126" x="268.4" y="367.5" width="97.6" height="24.65" shape-rendering="crispEdges"/><rect fill="#202126" x="366" y="367.5" width="292.8" height="24.65" shape-rendering="crispEdges"/><rect fill="#202126" x="658.8" y="367.5" width="12.2" height="24.65" shape-rendering="crispEdges"/><rect fill="#202126" x="671" y="367.5" width="24.4" height="24.65" shape-rendering="crispEdges"/><rect fill="#202126" x="695.4" y="367.5" width="12.2" height="24.65" shape-rendering="crispEdges"/><rect fill="#202126" x="707.6" y="367.5" width="12.2" height="24.65" shape-rendering="crispEdges"/><rect fill="#202126" x="719.8" y="367.5" width="146.4" height="24.65" shape-rendering="crispEdges"/><rect fill="#202126" x="866.2" y="367.5" width="85.4" height="24.65" shape-rendering="crispEdges"/><rect fill="#202126" x="951.6" y="367.5" width="12.2" height="24.65" shape-rendering="crispEdges"/><rect fill="#202126" x="963.8" y="367.5" width="12.2" height="24.65" shape-rendering="crispEdges"/><rect fill="#202126" x="976" y="367.5" width="439.2" height="24.65" shape-rendering="crispEdges"/><rect fill="#202126" x="1415.2" y="367.5" width="12.2" height="24.65" shape-rendering="crispEdges"/><rect fill="#202126" x="1427.4" y="367.5" width="12.2" height="24.65" shape-rendering="crispEdges"/><rect fill="#202126" x="1439.6" y="367.5" width="24.4" height="24.65" shape-rendering="crispEdges"/><rect fill="#202126" x="0" y="391.9" width="24.4" height="24.65" shape-rendering="crispEdges"/><rect fill="#202126" x="24.4" y="391.9" width="97.6" height="24.65" shape-rendering="crispEdges"/><rect fill="#202126" x="122" y="391.9" width="109.8" height="24.65" shape-rendering="crispEdges"/><rect fill="#202126" x="231.8" y="391.9" width="475.8" height="24.65" shape-rendering="crispEdges"/><rect fill="#202126" x="707.6" y="391.9" width="12.2" height="24.65" shape-rendering="crispEdges"/><rect fill="#202126" x="719.8" y="391.9" width="146.4" height="24.65" shape-rendering="crispEdges"/><rect fill="#202126" x="866.2" y="391.9" width="85.4" height="24.65" shape-rendering="crispEdges"/><rect fill="#202126" x="951.6" y="391.9" width="488" height="24.65" shape-rendering="crispEdges"/><rect fill="#202126" x="1439.6" y="391.9" width="24.4" height="24.65" shape-rendering="crispEdges"/><rect fill="#202126" x="0" y="416.3" width="24.4" height="24.65" shape-rendering="crispEdges"/><rect fill="#292b32" x="24.4" y="416.3" width="12.2" height="24.65" shape-rendering="crispEdges"/><rect fill="#292b32" x="36.6" y="416.3" width="366" height="24.65" shape-rendering="crispEdges"/><rect fill="#292b32" x="402.6" y="416.3" width="1037" height="24.65" shape-rendering="crispEdges"/><rect fill="#202126" x="1439.6" y="416.3" width="24.4" height="24.65" shape-rendering="crispEdges"/><rect fill="#202126" x="0" y="440.7" width="1464" height="24.65" shape-rendering="crispEdges"/><rect fill="#202126" x="0" y="465.1" width="1464" height="24.65" shape-rendering="crispEdges"/><rect fill="#202126" x="0" y="489.5" width="1464" height="24.65" shape-rendering="crispEdges"/><rect fill="#202126" x="0" y="513.9" width="1464" height="24.65" shape-rendering="crispEdges"/><rect fill="#202126" x="0" y="538.3" width="1464" height="24.65" shape-rendering="crispEdges"/><rect fill="#292b32" x="0" y="562.7" width="1464" height="24.65" shape-rendering="crispEdges"/><rect fill="#292b32" x="0" y="587.1" width="24.4" height="24.65" shape-rendering="crispEdges"/><rect fill="#292b32" x="24.4" y="587.1" width="170.8" height="24.65" shape-rendering="crispEdges"/><rect fill="#292b32" x="195.2" y="587.1" width="12.2" height="24.65" shape-rendering="crispEdges"/><rect fill="#292b32" x="207.4" y="587.1" width="195.2" height="24.65" shape-rendering="crispEdges"/><rect fill="#292b32" x="402.6" y="587.1" width="12.2" height="24.65" shape-rendering="crispEdges"/><rect fill="#292b32" x="414.8" y="587.1" width="207.4" height="24.65" shape-rendering="crispEdges"/><rect fill="#292b32" x="622.2" y="587.1" width="634.4" height="24.65" shape-rendering="crispEdges"/><rect fill="#292b32" x="1256.6" y="587.1" width="183" height="24.65" shape-rendering="crispEdges"/><rect fill="#292b32" x="1439.6" y="587.1" width="24.4" height="24.65" shape-rendering="crispEdges"/><rect fill="#292b32" x="0" y="611.5" width="24.4" height="24.65" shape-rendering="crispEdges"/><rect fill="#292b32" x="24.4" y="611.5" width="12.2" height="24.65" shape-rendering="crispEdges"/><rect fill="#292b32" x="36.6" y="611.5" width="12.2" height="24.65" shape-rendering="crispEdges"/><rect fill="#292b32" x="48.8" y="611.5" width="122" height="24.65" shape-rendering="crispEdges"/><rect fill="#292b32" x="170.8" y="611.5" width="12.2" height="24.65" shape-rendering="crispEdges"/><rect fill="#292b32" x="183" y="611.5" width="12.2" height="24.65" shape-rendering="crispEdges"/><rect fill="#292b32" x="195.2" y="611.5" width="12.2" height="24.65" shape-rendering="crispEdges"/><rect fill="#292b32" x="207.4" y="611.5" width="12.2" height="24.65" shape-rendering="crispEdges"/><rect fill="#292b32" x="219.6" y="611.5" width="12.2" height="24.65" shape-rendering="crispEdges"/><rect fill="#292b32" x="231.8" y="611.5" width="146.4" height="24.65" shape-rendering="crispEdges"/><rect fill="#292b32" x="378.2" y="611.5" width="12.2" height="24.65" shape-rendering="crispEdges"/><rect fill="#292b32" x="390.4" y="611.5" width="12.2" height="24.65" shape-rendering="crispEdges"/><rect fill="#292b32" x="402.6" y="611.5" width="12.2" height="24.65" shape-rendering="crispEdges"/><rect fill="#292b32" x="414.8" y="611.5" width="12.2" height="24.65" shape-rendering="crispEdges"/><rect fill="#292b32" x="427" y="611.5" width="12.2" height="24.65" shape-rendering="crispEdges"/><rect fill="#292b32" x="439.2" y="611.5" width="158.6" height="24.65" shape-rendering="crispEdges"/><rect fill="#292b32" x="597.8" y="611.5" width="12.2" height="24.65" shape-rendering="crispEdges"/><rect fill="#292b32" x="610" y="611.5" width="12.2" height="24.65" shape-rendering="crispEdges"/><rect fill="#292b32" x="622.2" y="611.5" width="634.4" height="24.65" shape-rendering="crispEdges"/><rect fill="#292b32" x="1256.6" y="611.5" width="12.2" height="24.65" shape-rendering="crispEdges"/><rect fill="#292b32" x="1268.8" y="611.5" width="12.2" height="24.65" shape-rendering="crispEdges"/><rect fill="#292b32" x="1281" y="611.5" width="134.2" height="24.65" shape-rendering="crispEdges"/><rect fill="#292b32" x="1415.2" y="611.5" width="12.2" height="24.65" shape-rendering="crispEdges"/><rect fill="#292b32" x="1427.4" y="611.5" width="12.2" height="24.65" shape-rendering="crispEdges"/><rect fill="#292b32" x="1439.6" y="611.5" width="24.4" height="24.65" shape-rendering="crispEdges"/><rect fill="#292b32" x="0" y="635.9" width="24.4" height="24.65" shape-rendering="crispEdges"/><rect fill="#292b32" x="24.4" y="635.9" width="170.8" height="24.65" shape-rendering="crispEdges"/><rect fill="#292b32" x="195.2" y="635.9" width="12.2" height="24.65" shape-rendering="crispEdges"/><rect fill="#292b32" x="207.4" y="635.9" width="195.2" height="24.65" shape-rendering="crispEdges"/><rect fill="#292b32" x="402.6" y="635.9" width="12.2" height="24.65" shape-rendering="crispEdges"/><rect fill="#292b32" x="414.8" y="635.9" width="207.4" height="24.65" shape-rendering="crispEdges"/><rect fill="#292b32" x="622.2" y="635.9" width="634.4" height="24.65" shape-rendering="crispEdges"/><rect fill="#292b32" x="1256.6" y="635.9" width="183" height="24.65" shape-rendering="crispEdges"/><rect fill="#292b32" x="1439.6" y="635.9" width="24.4" height="24.65" shape-rendering="crispEdges"/><rect fill="#202126" x="0" y="660.3" width="24.4" height="24.65" shape-rendering="crispEdges"/><rect fill="#202126" x="24.4" y="660.3" width="1415.2" height="24.65" shape-rendering="crispEdges"/><rect fill="#202126" x="1439.6" y="660.3" width="24.4" height="24.65" shape-rendering="crispEdges"/><rect fill="#202126" x="0" y="684.7" width="24.4" height="24.65" shape-rendering="crispEdges"/><rect fill="#202126" x="24.4" y="684.7" width="12.2" height="24.65" shape-rendering="crispEdges"/><rect fill="#202126" x="36.6" y="684.7" width="12.2" height="24.65" shape-rendering="crispEdges"/><rect fill="#202126" x="48.8" y="684.7" width="561.2" height="24.65" shape-rendering="crispEdges"/><rect fill="#202126" x="610" y="684.7" width="805.2" height="24.65" shape-rendering="crispEdges"/><rect fill="#202126" x="1415.2" y="684.7" width="12.2" height="24.65" shape-rendering="crispEdges"/><rect fill="#202126" x="1427.4" y="684.7" width="12.2" height="24.65" shape-rendering="crispEdges"/><rect fill="#202126" x="1439.6" y="684.7" width="24.4" height="24.65" shape-rendering="crispEdges"/><rect fill="#202126" x="0" y="709.1" width="24.4" height="24.65" shape-rendering="crispEdges"/><rect fill="#202126" x="24.4" y="709.1" width="1415.2" height="24.65" shape-rendering="crispEdges"/><rect fill="#202126" x="1439.6" y="709.1" width="24.4" height="24.65" shape-rendering="crispEdges"/>
    <g class="terminal-matrix">
    <text class="terminal-r1" x="329.4" y="20" textLength="85.4" clip-path="url(#terminal-line-0)">AC-Prof</text><text class="terminal-r2" x="414.8" y="20" textLength="36.6" clip-path="url(#terminal-line-0)">&#160;—&#160;</text><text class="terminal-r2" x="451.4" y="20" textLength="610" clip-path="url(#terminal-line-0)">Native&#160;Linux&#160;/&#160;FULL&#160;·&#160;Inference&#160;experiment&#160;console</text><text class="terminal-r4" x="1415.2" y="20" textLength="36.6" clip-path="url(#terminal-line-0)">&#160;×&#160;</text><text class="terminal-r3" x="1464" y="20" textLength="12.2" clip-path="url(#terminal-line-0)">
</text><text class="terminal-r5" x="24.4" y="44.4" textLength="122" clip-path="url(#terminal-line-1)">Experiment</text><text class="terminal-r6" x="195.2" y="44.4" textLength="85.4" clip-path="url(#terminal-line-1)">Monitor</text><text class="terminal-r6" x="329.4" y="44.4" textLength="97.6" clip-path="url(#terminal-line-1)">Plotting</text><text class="terminal-r6" x="475.8" y="44.4" textLength="85.4" clip-path="url(#terminal-line-1)">Reports</text><text class="terminal-r6" x="610" y="44.4" textLength="170.8" clip-path="url(#terminal-line-1)">Backfill&#160;tools</text><text class="terminal-r6" x="829.6" y="44.4" textLength="73.2" clip-path="url(#terminal-line-1)">Images</text><text class="terminal-r6" x="1293.2" y="44.4" textLength="146.4" clip-path="url(#terminal-line-1)">App&#160;settings</text><text class="terminal-r3" x="1464" y="44.4" textLength="12.2" clip-path="url(#terminal-line-1)">
</text><text class="terminal-r7" x="0" y="68.8" textLength="24.4" clip-path="url(#terminal-line-2)">━╸</text><text class="terminal-r8" x="24.4" y="68.8" textLength="122" clip-path="url(#terminal-line-2)">━━━━━━━━━━</text><text class="terminal-r7" x="146.4" y="68.8" textLength="1317.6" clip-path="url(#terminal-line-2)">╺━━━━━━━━━━━━━━━━━━━━━━━━━━━━━━━━━━━━━━━━━━━━━━━━━━━━━━━━━━━━━━━━━━━━━━━━━━━━━━━━━━━━━━━━━━━━━━━━━━━━━━━━━━━</text><text class="terminal-r3" x="1464" y="68.8" textLength="12.2" clip-path="url(#terminal-line-2)">
</text><text class="terminal-r9" x="24.4" y="93.2" textLength="244" clip-path="url(#terminal-line-3)">Configure&#160;experiment</text><text class="terminal-r3" x="1464" y="93.2" textLength="12.2" clip-path="url(#terminal-line-3)">
</text><text class="terminal-r10" x="24.4" y="117.6" textLength="1207.8" clip-path="url(#terminal-line-4)">Resource&#160;cases:&#160;1&#160;·&#160;Input&#160;scales:&#160;1&#160;·&#160;Request&#160;timeout:&#160;300s&#160;·&#160;profilers&#160;off&#160;·&#160;Output:&#160;results/smoke</text><text class="terminal-r3" x="1464" y="117.6" textLength="12.2" clip-path="url(#terminal-line-4)">
</text><text class="terminal-r11" x="231.8" y="142" textLength="475.8" clip-path="url(#terminal-line-5)">┌─────────────────────────────────────┐</text><text class="terminal-r11" x="951.6" y="142" textLength="488" clip-path="url(#terminal-line-5)">┌──────────────────────────────────────┐</text><text class="terminal-r3" x="1464" y="142" textLength="12.2" clip-path="url(#terminal-line-5)">
</text><text class="terminal-r10" x="24.4" y="166.4" textLength="97.6" clip-path="url(#terminal-line-6)">Model&#160;ID</text><text class="terminal-r11" x="231.8" y="166.4" textLength="12.2" clip-path="url(#terminal-line-6)">│</text><text class="terminal-r12" x="256.2" y="166.4" textLength="427" clip-path="url(#terminal-line-6)">fixture/model&#160;&#160;&#160;&#160;&#160;&#160;&#160;&#160;&#160;&#160;&#160;&#160;&#160;&#160;&#160;&#160;&#160;&#160;&#160;&#160;&#160;&#160;</text><text class="terminal-r11" x="695.4" y="166.4" textLength="12.2" clip-path="url(#terminal-line-6)">│</text><text class="terminal-r10" x="719.8" y="166.4" textLength="195.2" clip-path="url(#terminal-line-6)">Output&#160;directory</text><text class="terminal-r11" x="951.6" y="166.4" textLength="12.2" clip-path="url(#terminal-line-6)">│</text><text class="terminal-r12" x="976" y="166.4" textLength="439.2" clip-path="url(#terminal-line-6)">results/smoke&#160;&#160;&#160;&#160;&#160;&#160;&#160;&#160;&#160;&#160;&#160;&#160;&#160;&#160;&#160;&#160;&#160;&#160;&#160;&#160;&#160;&#160;&#160;</text><text class="terminal-r11" x="1427.4" y="166.4" textLength="12.2" clip-path="url(#terminal-line-6)">│</text><text class="terminal-r3" x="1464" y="166.4" textLength="12.2" clip-path="url(#terminal-line-6)">
</text><text class="terminal-r11" x="231.8" y="190.8" textLength="475.8" clip-path="url(#terminal-line-7)">└─────────────────────────────────────┘</text><text class="terminal-r11" x="951.6" y="190.8" textLength="488" clip-path="url(#terminal-line-7)">└──────────────────────────────────────┘</text><text class="terminal-r3" x="1464" y="190.8" textLength="12.2" clip-path="url(#terminal-line-7)">
</text><text class="terminal-r10" x="24.4" y="215.2" textLength="97.6" clip-path="url(#terminal-line-8)">Advanced</text><text class="terminal-r13" x="231.8" y="215.2" textLength="231.8" clip-path="url(#terminal-line-8)">╭─────────────────╮</text><text class="terminal-r11" x="951.6" y="215.2" textLength="488" clip-path="url(#terminal-line-8)">┌──────────────────────────────────────┐</text><text class="terminal-r3" x="1464" y="215.2" textLength="12.2" clip-path="url(#terminal-line-8)">
</text><text class="terminal-r10" x="24.4" y="239.6" textLength="134.2" clip-path="url(#terminal-line-9)">diagnostics</text><text class="terminal-r13" x="231.8" y="239.6" textLength="12.2" clip-path="url(#terminal-line-9)">│</text><text class="terminal-r12" x="256.2" y="239.6" textLength="183" clip-path="url(#terminal-line-9)">&#160;Inspect&#160;model&#160;</text><text class="terminal-r13" x="451.4" y="239.6" textLength="12.2" clip-path="url(#terminal-line-9)">│</text><text class="terminal-r10" x="719.8" y="239.6" textLength="122" clip-path="url(#terminal-line-9)">Run&#160;preset</text><text class="terminal-r11" x="951.6" y="239.6" textLength="12.2" clip-path="url(#terminal-line-9)">│</text><text class="terminal-r12" x="988.2" y="239.6" textLength="183" clip-path="url(#terminal-line-9)">Basic&#160;CPU&#160;smoke</text><text class="terminal-r14" x="1390.8" y="239.6" textLength="12.2" clip-path="url(#terminal-line-9)">▼</text><text class="terminal-r11" x="1427.4" y="239.6" textLength="12.2" clip-path="url(#terminal-line-9)">│</text><text class="terminal-r3" x="1464" y="239.6" textLength="12.2" clip-path="url(#terminal-line-9)">
</text><text class="terminal-r13" x="231.8" y="264" textLength="231.8" clip-path="url(#terminal-line-10)">╰─────────────────╯</text><text class="terminal-r11" x="951.6" y="264" textLength="488" clip-path="url(#terminal-line-10)">└──────────────────────────────────────┘</text><text class="terminal-r3" x="1464" y="264" textLength="12.2" clip-path="url(#terminal-line-10)">
</text><text class="terminal-r11" x="231.8" y="288.4" textLength="475.8" clip-path="url(#terminal-line-11)">┌─────────────────────────────────────┐</text><text class="terminal-r11" x="951.6" y="288.4" textLength="488" clip-path="url(#terminal-line-11)">┌──────────────────────────────────────┐</text><text class="terminal-r3" x="1464" y="288.4" textLength="12.2" clip-path="url(#terminal-line-11)">
</text><text class="terminal-r10" x="24.4" y="312.8" textLength="97.6" clip-path="url(#terminal-line-12)">CPU&#160;list</text><text class="terminal-r11" x="231.8" y="312.8" textLength="12.2" clip-path="url(#terminal-line-12)">│</text><text class="terminal-r12" x="256.2" y="312.8" textLength="427" clip-path="url(#terminal-line-12)">1&#160;&#160;&#160;&#160;&#160;&#160;&#160;&#160;&#160;&#160;&#160;&#160;&#160;&#160;&#160;&#160;&#160;&#160;&#160;&#160;&#160;&#160;&#160;&#160;&#160;&#160;&#160;&#160;&#160;&#160;&#160;&#160;&#160;&#160;</text><text class="terminal-r11" x="695.4" y="312.8" textLength="12.2" clip-path="url(#terminal-line-12)">│</text><text class="terminal-r10" x="719.8" y="312.8" textLength="134.2" clip-path="url(#terminal-line-12)">Memory&#160;(GB)</text><text class="terminal-r11" x="951.6" y="312.8" textLength="12.2" clip-path="url(#terminal-line-12)">│</text><text class="terminal-r12" x="976" y="312.8" textLength="439.2" clip-path="url(#terminal-line-12)">4&#160;&#160;&#160;&#160;&#160;&#160;&#160;&#160;&#160;&#160;&#160;&#160;&#160;&#160;&#160;&#160;&#160;&#160;&#160;&#160;&#160;&#160;&#160;&#160;&#160;&#160;&#160;&#160;&#160;&#160;&#160;&#160;&#160;&#160;&#160;</text><text class="terminal-r11" x="1427.4" y="312.8" textLength="12.2" clip-path="url(#terminal-line-12)">│</text><text class="terminal-r3" x="1464" y="312.8" textLength="12.2" clip-path="url(#terminal-line-12)">
</text><text class="terminal-r11" x="231.8" y="337.2" textLength="475.8" clip-path="url(#terminal-line-13)">└─────────────────────────────────────┘</text><text class="terminal-r11" x="951.6" y="337.2" textLength="488" clip-path="url(#terminal-line-13)">└──────────────────────────────────────┘</text><text class="terminal-r3" x="1464" y="337.2" textLength="12.2" clip-path="url(#terminal-line-13)">
</text><text class="terminal-r11" x="231.8" y="361.6" textLength="475.8" clip-path="url(#terminal-line-14)">┌─────────────────────────────────────┐</text><text class="terminal-r11" x="951.6" y="361.6" textLength="488" clip-path="url(#terminal-line-14)">┌──────────────────────────────────────┐</text><text class="terminal-r3" x="1464" y="361.6" textLength="12.2" clip-path="url(#terminal-line-14)">
</text><text class="terminal-r10" x="24.4" y="386" textLength="97.6" clip-path="url(#terminal-line-15)">GPU&#160;mode</text><text class="terminal-r11" x="231.8" y="386" textLength="12.2" clip-path="url(#terminal-line-15)">│</text><text class="terminal-r12" x="268.4" y="386" textLength="97.6" clip-path="url(#terminal-line-15)">CPU&#160;only</text><text class="terminal-r14" x="658.8" y="386" textLength="12.2" clip-path="url(#terminal-line-15)">▼</text><text class="terminal-r11" x="695.4" y="386" textLength="12.2" clip-path="url(#terminal-line-15)">│</text><text class="terminal-r10" x="719.8" y="386" textLength="146.4" clip-path="url(#terminal-line-15)">Input&#160;scales</text><text class="terminal-r11" x="951.6" y="386" textLength="12.2" clip-path="url(#terminal-line-15)">│</text><text class="terminal-r12" x="976" y="386" textLength="439.2" clip-path="url(#terminal-line-15)">64&#160;&#160;&#160;&#160;&#160;&#160;&#160;&#160;&#160;&#160;&#160;&#160;&#160;&#160;&#160;&#160;&#160;&#160;&#160;&#160;&#160;&#160;&#160;&#160;&#160;&#160;&#160;&#160;&#160;&#160;&#160;&#160;&#160;&#160;</text><text class="terminal-r11" x="1427.4" y="386" textLength="12.2" clip-path="url(#terminal-line-15)">│</text><text class="terminal-r3" x="1464" y="386" textLength="12.2" clip-path="url(#terminal-line-15)">
</text><text class="terminal-r11" x="231.8" y="410.4" textLength="475.8" clip-path="url(#terminal-line-16)">└─────────────────────────────────────┘</text><text class="terminal-r11" x="951.6" y="410.4" textLength="488" clip-path="url(#terminal-line-16)">└──────────────────────────────────────┘</text><text class="terminal-r3" x="1464" y="410.4" textLength="12.2" clip-path="url(#terminal-line-16)">
</text><text class="terminal-r12" x="36.6" y="434.8" textLength="366" clip-path="url(#terminal-line-17)">▶&#160;&#160;Full&#160;command&#160;(auto-updated)</text><text class="terminal-r3" x="1464" y="434.8" textLength="12.2" clip-path="url(#terminal-line-17)">
</text><text class="terminal-r3" x="1464" y="459.2" textLength="12.2" clip-path="url(#terminal-line-18)">
</text><text class="terminal-r3" x="1464" y="483.6" textLength="12.2" clip-path="url(#terminal-line-19)">
</text><text class="terminal-r3" x="1464" y="508" textLength="12.2" clip-path="url(#terminal-line-20)">
</text><text class="terminal-r3" x="1464" y="532.4" textLength="12.2" clip-path="url(#terminal-line-21)">
</text><text class="terminal-r3" x="1464" y="556.8" textLength="12.2" clip-path="url(#terminal-line-22)">
</text><text class="terminal-r11" x="0" y="581.2" textLength="1464" clip-path="url(#terminal-line-23)">────────────────────────────────────────────────────────────────────────────────────────────────────────────────────────</text><text class="terminal-r3" x="1464" y="581.2" textLength="12.2" clip-path="url(#terminal-line-23)">
</text><text class="terminal-r15" x="24.4" y="605.6" textLength="170.8" clip-path="url(#terminal-line-24)">╭────────────╮</text><text class="terminal-r15" x="207.4" y="605.6" textLength="195.2" clip-path="url(#terminal-line-24)">╭──────────────╮</text><text class="terminal-r15" x="414.8" y="605.6" textLength="207.4" clip-path="url(#terminal-line-24)">╭───────────────╮</text><text class="terminal-r8" x="1256.6" y="605.6" textLength="183" clip-path="url(#terminal-line-24)">╭─────────────╮</text><text class="terminal-r3" x="1464" y="605.6" textLength="12.2" clip-path="url(#terminal-line-24)">
</text><text class="terminal-r15" x="24.4" y="630" textLength="12.2" clip-path="url(#terminal-line-25)">│</text><text class="terminal-r12" x="48.8" y="630" textLength="122" clip-path="url(#terminal-line-25)">&#160;Advanced&#160;</text><text class="terminal-r15" x="183" y="630" textLength="12.2" clip-path="url(#terminal-line-25)">│</text><text class="terminal-r15" x="207.4" y="630" textLength="12.2" clip-path="url(#terminal-line-25)">│</text><text class="terminal-r12" x="231.8" y="630" textLength="146.4" clip-path="url(#terminal-line-25)">&#160;Check&#160;host&#160;</text><text class="terminal-r15" x="390.4" y="630" textLength="12.2" clip-path="url(#terminal-line-25)">│</text><text class="terminal-r15" x="414.8" y="630" textLength="12.2" clip-path="url(#terminal-line-25)">│</text><text class="terminal-r12" x="439.2" y="630" textLength="158.6" clip-path="url(#terminal-line-25)">&#160;Probe&#160;input&#160;</text><text class="terminal-r15" x="610" y="630" textLength="12.2" clip-path="url(#terminal-line-25)">│</text><text class="terminal-r8" x="1256.6" y="630" textLength="12.2" clip-path="url(#terminal-line-25)">│</text><text class="terminal-r5" x="1281" y="630" textLength="134.2" clip-path="url(#terminal-line-25)">&#160;Start&#160;run&#160;</text><text class="terminal-r8" x="1427.4" y="630" textLength="12.2" clip-path="url(#terminal-line-25)">│</text><text class="terminal-r3" x="1464" y="630" textLength="12.2" clip-path="url(#terminal-line-25)">
</text><text class="terminal-r15" x="24.4" y="654.4" textLength="170.8" clip-path="url(#terminal-line-26)">╰────────────╯</text><text class="terminal-r15" x="207.4" y="654.4" textLength="195.2" clip-path="url(#terminal-line-26)">╰──────────────╯</text><text class="terminal-r15" x="414.8" y="654.4" textLength="207.4" clip-path="url(#terminal-line-26)">╰───────────────╯</text><text class="terminal-r8" x="1256.6" y="654.4" textLength="183" clip-path="url(#terminal-line-26)">╰─────────────╯</text><text class="terminal-r3" x="1464" y="654.4" textLength="12.2" clip-path="url(#terminal-line-26)">
</text><text class="terminal-r11" x="24.4" y="678.8" textLength="1415.2" clip-path="url(#terminal-line-27)">╭──────────────────────────────────────────────────────────────────────────────────────────────────────────────────╮</text><text class="terminal-r3" x="1464" y="678.8" textLength="12.2" clip-path="url(#terminal-line-27)">
</text><text class="terminal-r11" x="24.4" y="703.2" textLength="12.2" clip-path="url(#terminal-line-28)">│</text><text class="terminal-r16" x="48.8" y="703.2" textLength="561.2" clip-path="url(#terminal-line-28)">Commands:&#160;/help&#160;to&#160;list&#160;commands;&#160;Enter&#160;to&#160;run</text><text class="terminal-r11" x="1427.4" y="703.2" textLength="12.2" clip-path="url(#terminal-line-28)">│</text><text class="terminal-r3" x="1464" y="703.2" textLength="12.2" clip-path="url(#terminal-line-28)">
</text><text class="terminal-r11" x="24.4" y="727.6" textLength="1415.2" clip-path="url(#terminal-line-29)">╰──────────────────────────────────────────────────────────────────────────────────────────────────────────────────╯</text>
    </g>
    </g>
</svg>
